<svg viewBox="0 0 512 512" width="512px" height="512px">
  <g fill="#655efe">
    <path d="M360.71 465.4c3.88 0 7.76 1.17 10.48 4.27 3.1 2.71 4.65 6.6 5.04 10.47 0 3.88-1.17 7.76-3.88 10.86-2.72 3.1-6.6 5.04-10.47 5.04-61.28 5.43-122.94 10.47-184.22 15.9a14.6 14.6 0 01-11.64-4.26c-3.49-2.72-5.04-6.99-5.04-11.25V30.25c0-7.76 2.72-15.51 8.15-21.33A29.62 29.62 0 01190.45 0c8.14 0 15.9 3.1 21.33 8.92a31.61 31.61 0 018.53 21.33V465.4h140.4z"/>
    <path fill-rule="evenodd" d="M236.22 386.28c6.6 0 12.8 2.72 17.45 7.37a24.06 24.06 0 016.98 17.07c0 6.59-2.32 12.8-6.98 17.45a24.67 24.67 0 01-17.45 7.37h-76.01c-6.6 0-12.8-2.72-17.46-7.37-4.65-4.66-6.98-10.86-6.98-17.45 0-6.2 2.33-12.41 6.98-17.07a24.67 24.67 0 0117.46-7.37h76.01zm0 19.4c1.55 0 2.72.77 3.5 1.55a4.74 4.74 0 011.54 3.49c0 1.55-.39 2.71-1.55 3.88a4.91 4.91 0 01-3.49 1.55h-76.01c-1.56 0-2.72-.78-3.88-1.55a6.55 6.55 0 01-1.17-3.88c0-1.17.4-2.33 1.17-3.5 1.16-.77 2.32-1.55 3.88-1.55h76.01zM236.22 301.74c6.6 0 12.8 2.71 17.45 7.36 4.66 4.27 6.98 10.48 6.98 17.07 0 6.6-2.32 12.8-6.98 17.45-4.65 4.65-10.86 6.98-17.45 6.98h-76.01c-6.6 0-12.8-2.33-17.46-6.98-4.65-4.65-6.98-10.86-6.98-17.45 0-6.6 2.33-12.8 6.98-17.07a24.67 24.67 0 0117.46-7.37h76.01zm0 19.39c1.55 0 2.72.38 3.5 1.55 1.15.77 1.54 2.32 1.54 3.49 0 1.55-.39 2.71-1.55 3.88-.78.77-1.94 1.16-3.49 1.16h-76.01a6.55 6.55 0 01-3.88-1.16 6.55 6.55 0 01-1.17-3.88c0-1.17.4-2.72 1.17-3.5a4.98 4.98 0 013.88-1.54h76.01zM236.22 47.7c6.6 0 12.8 2.72 17.45 7.37a24.07 24.07 0 016.98 17.07c0 6.59-2.32 12.8-6.98 17.45a24.67 24.67 0 01-17.45 7.37h-76.01c-6.6 0-12.8-2.72-17.46-7.37-4.65-4.65-6.98-10.86-6.98-17.45 0-6.2 2.33-12.41 6.98-17.07a24.67 24.67 0 0117.46-7.37h76.01zm0 19.4c1.55 0 2.72.77 3.5 1.55a4.74 4.74 0 011.54 3.49c0 1.55-.39 2.71-1.55 3.88a4.92 4.92 0 01-3.49 1.55h-76.01c-1.56 0-2.72-.78-3.88-1.55a6.55 6.55 0 01-1.17-3.88c0-1.17.4-2.33 1.17-3.5 1.16-.77 2.32-1.55 3.88-1.55h76.01zM236.22 132.64c6.6 0 12.8 2.33 17.45 6.98 4.66 4.65 6.98 10.86 6.98 17.45 0 6.2-2.32 12.8-6.98 17.07a24.67 24.67 0 01-17.45 7.37h-76.01c-6.6 0-12.8-2.72-17.46-7.37-4.65-4.27-6.98-10.86-6.98-17.07 0-6.59 2.33-12.8 6.98-17.45 4.66-4.65 10.86-6.98 17.46-6.98h76.01zm0 19.4c1.55 0 2.72.38 3.5 1.16a4.98 4.98 0 011.54 3.87c0 1.17-.39 2.72-1.55 3.5-.78 1.16-1.94 1.55-3.49 1.55h-76.01a4.98 4.98 0 01-3.88-1.56c-.78-.77-1.17-2.32-1.17-3.49 0-1.55.4-2.71 1.17-3.88a6.55 6.55 0 013.88-1.16h76.01zM236.22 217.19c6.6 0 12.8 2.32 17.45 6.98 4.66 4.65 6.98 10.86 6.98 17.45 0 6.6-2.32 12.8-6.98 17.45a26.03 26.03 0 01-17.45 6.98h-76.01c-6.6 0-12.8-2.71-17.46-6.98-4.65-4.65-6.98-10.86-6.98-17.45 0-6.6 2.33-12.8 6.98-17.45 4.66-4.66 10.86-6.98 17.46-6.98h76.01zm0 19.39c1.55 0 2.72.39 3.5 1.55 1.15.78 1.54 1.94 1.54 3.5 0 1.15-.39 2.7-1.55 3.48-.78 1.16-1.94 1.55-3.49 1.55h-76.01a4.98 4.98 0 01-3.88-1.55c-.78-.77-1.17-2.33-1.17-3.49 0-1.55.4-2.71 1.17-3.49a4.98 4.98 0 013.88-1.55h76.01z"/>
  </g>
</svg>
